<mxfile host="app.diagrams.net" modified="2023-06-01T23:28:10.875Z" agent="Mozilla/5.0 (Windows NT 10.0; Win64; x64) AppleWebKit/537.36 (KHTML, like Gecko) Chrome/113.0.0.0 Safari/537.36" etag="-eYTO5gco3a5Tu79nyhC" version="21.3.6" type="github">
  <diagram id="C5RBs43oDa-KdzZeNtuy" name="Page-1">
    <mxGraphModel dx="2796" dy="927" grid="1" gridSize="10" guides="1" tooltips="1" connect="1" arrows="1" fold="1" page="1" pageScale="1" pageWidth="827" pageHeight="1169" math="0" shadow="0">
      <root>
        <mxCell id="WIyWlLk6GJQsqaUBKTNV-0" />
        <mxCell id="WIyWlLk6GJQsqaUBKTNV-1" parent="WIyWlLk6GJQsqaUBKTNV-0" />
        <mxCell id="2FdznvhUaiDpvyAlDGOY-23" value="" style="swimlane;startSize=0;" vertex="1" parent="WIyWlLk6GJQsqaUBKTNV-1">
          <mxGeometry x="-10" y="60" width="590" height="900" as="geometry" />
        </mxCell>
        <mxCell id="2FdznvhUaiDpvyAlDGOY-25" value="" style="swimlane;startSize=0;" vertex="1" parent="2FdznvhUaiDpvyAlDGOY-23">
          <mxGeometry x="250" y="60" width="320" height="150" as="geometry" />
        </mxCell>
        <mxCell id="2FdznvhUaiDpvyAlDGOY-26" value="If&amp;nbsp; информация передана&lt;br&gt;&amp;nbsp;в форме обратной связи" style="text;html=1;align=center;verticalAlign=middle;resizable=0;points=[];autosize=1;strokeColor=none;fillColor=none;" vertex="1" parent="2FdznvhUaiDpvyAlDGOY-25">
          <mxGeometry width="170" height="40" as="geometry" />
        </mxCell>
        <mxCell id="2FdznvhUaiDpvyAlDGOY-29" value="Then" style="text;html=1;align=center;verticalAlign=middle;resizable=0;points=[];autosize=1;strokeColor=none;fillColor=none;" vertex="1" parent="2FdznvhUaiDpvyAlDGOY-25">
          <mxGeometry y="80" width="50" height="30" as="geometry" />
        </mxCell>
        <mxCell id="2FdznvhUaiDpvyAlDGOY-27" value="" style="swimlane;startSize=0;" vertex="1" parent="2FdznvhUaiDpvyAlDGOY-25">
          <mxGeometry x="150" y="80" width="160" height="30" as="geometry" />
        </mxCell>
        <mxCell id="2FdznvhUaiDpvyAlDGOY-30" value="Сохранить информацию" style="text;html=1;align=center;verticalAlign=middle;resizable=0;points=[];autosize=1;strokeColor=none;fillColor=none;" vertex="1" parent="2FdznvhUaiDpvyAlDGOY-27">
          <mxGeometry width="160" height="30" as="geometry" />
        </mxCell>
        <mxCell id="2FdznvhUaiDpvyAlDGOY-40" value="" style="swimlane;startSize=0;" vertex="1" parent="2FdznvhUaiDpvyAlDGOY-23">
          <mxGeometry x="240" y="410" width="339" height="480" as="geometry" />
        </mxCell>
        <mxCell id="2FdznvhUaiDpvyAlDGOY-41" value="If&amp;nbsp; пользователь оставил&lt;br&gt;&amp;nbsp;контактные данные" style="text;html=1;align=center;verticalAlign=middle;resizable=0;points=[];autosize=1;strokeColor=none;fillColor=none;" vertex="1" parent="2FdznvhUaiDpvyAlDGOY-40">
          <mxGeometry x="5" width="160" height="40" as="geometry" />
        </mxCell>
        <mxCell id="2FdznvhUaiDpvyAlDGOY-42" value="Then" style="text;html=1;align=center;verticalAlign=middle;resizable=0;points=[];autosize=1;strokeColor=none;fillColor=none;" vertex="1" parent="2FdznvhUaiDpvyAlDGOY-40">
          <mxGeometry y="80" width="50" height="30" as="geometry" />
        </mxCell>
        <mxCell id="2FdznvhUaiDpvyAlDGOY-43" value="" style="swimlane;startSize=0;" vertex="1" parent="2FdznvhUaiDpvyAlDGOY-40">
          <mxGeometry x="150" y="80" width="165" height="30" as="geometry" />
        </mxCell>
        <mxCell id="2FdznvhUaiDpvyAlDGOY-44" value="Позвонить пользователю" style="text;html=1;align=center;verticalAlign=middle;resizable=0;points=[];autosize=1;strokeColor=none;fillColor=none;" vertex="1" parent="2FdznvhUaiDpvyAlDGOY-43">
          <mxGeometry x="-5" width="170" height="30" as="geometry" />
        </mxCell>
        <mxCell id="2FdznvhUaiDpvyAlDGOY-45" value="" style="swimlane;startSize=0;" vertex="1" parent="2FdznvhUaiDpvyAlDGOY-40">
          <mxGeometry x="125" y="160" width="205" height="310" as="geometry" />
        </mxCell>
        <mxCell id="2FdznvhUaiDpvyAlDGOY-46" value="If&amp;nbsp; пользователь&lt;br&gt;ответил" style="text;html=1;align=center;verticalAlign=middle;resizable=0;points=[];autosize=1;strokeColor=none;fillColor=none;" vertex="1" parent="2FdznvhUaiDpvyAlDGOY-45">
          <mxGeometry width="120" height="40" as="geometry" />
        </mxCell>
        <mxCell id="2FdznvhUaiDpvyAlDGOY-47" value="Then" style="text;html=1;align=center;verticalAlign=middle;resizable=0;points=[];autosize=1;strokeColor=none;fillColor=none;" vertex="1" parent="2FdznvhUaiDpvyAlDGOY-45">
          <mxGeometry y="80" width="50" height="30" as="geometry" />
        </mxCell>
        <mxCell id="2FdznvhUaiDpvyAlDGOY-48" value="" style="swimlane;startSize=0;" vertex="1" parent="2FdznvhUaiDpvyAlDGOY-45">
          <mxGeometry x="104" y="70" width="86" height="35" as="geometry" />
        </mxCell>
        <mxCell id="2FdznvhUaiDpvyAlDGOY-49" value="Ответить&lt;br&gt;&amp;nbsp;на вопросы" style="text;html=1;align=center;verticalAlign=middle;resizable=0;points=[];autosize=1;strokeColor=none;fillColor=none;" vertex="1" parent="2FdznvhUaiDpvyAlDGOY-48">
          <mxGeometry x="-5" y="-5" width="90" height="40" as="geometry" />
        </mxCell>
        <mxCell id="2FdznvhUaiDpvyAlDGOY-50" value="" style="swimlane;startSize=0;" vertex="1" parent="2FdznvhUaiDpvyAlDGOY-45">
          <mxGeometry x="104" y="105" width="86" height="35" as="geometry" />
        </mxCell>
        <mxCell id="2FdznvhUaiDpvyAlDGOY-51" value="Закрыть&lt;br&gt;&amp;nbsp;обращение" style="text;html=1;align=center;verticalAlign=middle;resizable=0;points=[];autosize=1;strokeColor=none;fillColor=none;" vertex="1" parent="2FdznvhUaiDpvyAlDGOY-50">
          <mxGeometry x="-5" y="-5" width="90" height="40" as="geometry" />
        </mxCell>
        <mxCell id="2FdznvhUaiDpvyAlDGOY-52" value="Else" style="text;html=1;align=center;verticalAlign=middle;resizable=0;points=[];autosize=1;strokeColor=none;fillColor=none;" vertex="1" parent="2FdznvhUaiDpvyAlDGOY-45">
          <mxGeometry y="158" width="50" height="30" as="geometry" />
        </mxCell>
        <mxCell id="2FdznvhUaiDpvyAlDGOY-53" value="" style="swimlane;startSize=0;" vertex="1" parent="2FdznvhUaiDpvyAlDGOY-45">
          <mxGeometry x="104" y="158" width="86" height="35" as="geometry" />
        </mxCell>
        <mxCell id="2FdznvhUaiDpvyAlDGOY-54" value="Закрыть&lt;br&gt;&amp;nbsp;обращение" style="text;html=1;align=center;verticalAlign=middle;resizable=0;points=[];autosize=1;strokeColor=none;fillColor=none;" vertex="1" parent="2FdznvhUaiDpvyAlDGOY-53">
          <mxGeometry x="-5" y="-5" width="90" height="40" as="geometry" />
        </mxCell>
        <mxCell id="2FdznvhUaiDpvyAlDGOY-58" value="" style="swimlane;startSize=0;" vertex="1" parent="2FdznvhUaiDpvyAlDGOY-45">
          <mxGeometry x="104" y="193" width="86" height="35" as="geometry" />
        </mxCell>
        <mxCell id="2FdznvhUaiDpvyAlDGOY-59" value="Отправить&lt;br&gt;SMS" style="text;html=1;align=center;verticalAlign=middle;resizable=0;points=[];autosize=1;strokeColor=none;fillColor=none;" vertex="1" parent="2FdznvhUaiDpvyAlDGOY-58">
          <mxGeometry y="-5" width="80" height="40" as="geometry" />
        </mxCell>
        <mxCell id="2FdznvhUaiDpvyAlDGOY-57" value="" style="endArrow=classic;html=1;rounded=0;exitX=0.532;exitY=1.072;exitDx=0;exitDy=0;exitPerimeter=0;entryX=0.921;entryY=-0.008;entryDx=0;entryDy=0;entryPerimeter=0;" edge="1" parent="2FdznvhUaiDpvyAlDGOY-40" source="2FdznvhUaiDpvyAlDGOY-44" target="2FdznvhUaiDpvyAlDGOY-46">
          <mxGeometry width="50" height="50" relative="1" as="geometry">
            <mxPoint x="90" y="210" as="sourcePoint" />
            <mxPoint x="140" y="160" as="targetPoint" />
          </mxGeometry>
        </mxCell>
        <mxCell id="2FdznvhUaiDpvyAlDGOY-24" value="While обращение пользователя не закрыто" style="text;html=1;align=center;verticalAlign=middle;resizable=0;points=[];autosize=1;strokeColor=none;fillColor=none;" vertex="1" parent="WIyWlLk6GJQsqaUBKTNV-1">
          <mxGeometry x="-15" y="78" width="270" height="30" as="geometry" />
        </mxCell>
        <mxCell id="2FdznvhUaiDpvyAlDGOY-31" value="" style="swimlane;startSize=0;" vertex="1" parent="WIyWlLk6GJQsqaUBKTNV-1">
          <mxGeometry x="390" y="230" width="160" height="30" as="geometry" />
        </mxCell>
        <mxCell id="2FdznvhUaiDpvyAlDGOY-32" value="Закрыть обращение" style="text;html=1;align=center;verticalAlign=middle;resizable=0;points=[];autosize=1;strokeColor=none;fillColor=none;" vertex="1" parent="2FdznvhUaiDpvyAlDGOY-31">
          <mxGeometry x="10" width="140" height="30" as="geometry" />
        </mxCell>
        <mxCell id="2FdznvhUaiDpvyAlDGOY-33" value="" style="swimlane;startSize=0;" vertex="1" parent="WIyWlLk6GJQsqaUBKTNV-1">
          <mxGeometry x="240" y="300" width="320" height="150" as="geometry" />
        </mxCell>
        <mxCell id="2FdznvhUaiDpvyAlDGOY-34" value="If&amp;nbsp; пользователь находится&lt;br&gt;&amp;nbsp;в онлайн-чате" style="text;html=1;align=center;verticalAlign=middle;resizable=0;points=[];autosize=1;strokeColor=none;fillColor=none;" vertex="1" parent="2FdznvhUaiDpvyAlDGOY-33">
          <mxGeometry x="-5" width="180" height="40" as="geometry" />
        </mxCell>
        <mxCell id="2FdznvhUaiDpvyAlDGOY-35" value="Then" style="text;html=1;align=center;verticalAlign=middle;resizable=0;points=[];autosize=1;strokeColor=none;fillColor=none;" vertex="1" parent="2FdznvhUaiDpvyAlDGOY-33">
          <mxGeometry y="80" width="50" height="30" as="geometry" />
        </mxCell>
        <mxCell id="2FdznvhUaiDpvyAlDGOY-36" value="" style="swimlane;startSize=0;" vertex="1" parent="2FdznvhUaiDpvyAlDGOY-33">
          <mxGeometry x="150" y="80" width="160" height="30" as="geometry" />
        </mxCell>
        <mxCell id="2FdznvhUaiDpvyAlDGOY-37" value="Ответить на вопросы" style="text;html=1;align=center;verticalAlign=middle;resizable=0;points=[];autosize=1;strokeColor=none;fillColor=none;" vertex="1" parent="2FdznvhUaiDpvyAlDGOY-36">
          <mxGeometry x="10" width="140" height="30" as="geometry" />
        </mxCell>
        <mxCell id="2FdznvhUaiDpvyAlDGOY-38" value="" style="swimlane;startSize=0;" vertex="1" parent="WIyWlLk6GJQsqaUBKTNV-1">
          <mxGeometry x="390" y="410" width="160" height="30" as="geometry" />
        </mxCell>
        <mxCell id="2FdznvhUaiDpvyAlDGOY-39" value="Закрыть обращение" style="text;html=1;align=center;verticalAlign=middle;resizable=0;points=[];autosize=1;strokeColor=none;fillColor=none;" vertex="1" parent="2FdznvhUaiDpvyAlDGOY-38">
          <mxGeometry x="10" width="140" height="30" as="geometry" />
        </mxCell>
        <mxCell id="2FdznvhUaiDpvyAlDGOY-55" value="" style="endArrow=classic;html=1;rounded=0;exitX=0.5;exitY=1;exitDx=0;exitDy=0;entryX=0.5;entryY=0;entryDx=0;entryDy=0;" edge="1" parent="WIyWlLk6GJQsqaUBKTNV-1" source="2FdznvhUaiDpvyAlDGOY-25" target="2FdznvhUaiDpvyAlDGOY-33">
          <mxGeometry width="50" height="50" relative="1" as="geometry">
            <mxPoint x="320" y="430" as="sourcePoint" />
            <mxPoint x="370" y="380" as="targetPoint" />
          </mxGeometry>
        </mxCell>
        <mxCell id="2FdznvhUaiDpvyAlDGOY-56" value="" style="endArrow=classic;html=1;rounded=0;exitX=0.483;exitY=1.014;exitDx=0;exitDy=0;exitPerimeter=0;" edge="1" parent="WIyWlLk6GJQsqaUBKTNV-1" source="2FdznvhUaiDpvyAlDGOY-33">
          <mxGeometry width="50" height="50" relative="1" as="geometry">
            <mxPoint x="320" y="520" as="sourcePoint" />
            <mxPoint x="395" y="470" as="targetPoint" />
          </mxGeometry>
        </mxCell>
      </root>
    </mxGraphModel>
  </diagram>
</mxfile>
